<?xml version="1.0" standalone="no"?>
<!DOCTYPE svg PUBLIC "-//W3C//DTD SVG 20010904//EN"
 "http://www.w3.org/TR/2001/REC-SVG-20010904/DTD/svg10.dtd">
<svg version="1.0" xmlns="http://www.w3.org/2000/svg"
 width="600.000000pt" height="600.000000pt" viewBox="0 0 600.000000 600.000000"
 preserveAspectRatio="xMidYMid meet">
<metadata>
Created by potrace 1.11, written by Peter Selinger 2001-2013
</metadata>
<g transform="translate(0.000000,600.000000) scale(0.100000,-0.100000)"
fill="#000000" stroke="none">
<path d="M2818 5995 c-2 -1 -41 -5 -88 -9 -740 -57 -1484 -436 -1979 -1006
-31 -36 -62 -71 -69 -79 -61 -65 -234 -318 -304 -445 -107 -195 -216 -459
-264 -636 -15 -57 -45 -179 -49 -200 -2 -14 -9 -50 -15 -80 -6 -30 -13 -71
-16 -90 -2 -19 -7 -48 -9 -65 -26 -168 -26 -575 0 -775 11 -85 33 -204 44
-246 5 -22 13 -53 16 -71 7 -43 82 -286 107 -348 62 -155 87 -211 139 -311 78
-151 208 -359 283 -451 188 -231 364 -410 526 -533 25 -19 47 -37 50 -41 8
-10 221 -154 265 -180 434 -248 827 -376 1280 -417 102 -9 415 -9 525 0 487
39 983 214 1400 491 547 364 964 905 1180 1533 39 113 94 322 105 399 3 22 8
46 10 53 3 7 7 34 10 60 4 26 8 58 11 72 25 148 25 593 -1 765 -35 228 -56
326 -112 505 -59 192 -157 418 -254 590 -70 122 -253 389 -293 425 -6 6 -40
44 -76 85 -172 196 -373 370 -606 524 -56 36 -104 66 -107 66 -3 0 -22 11 -41
24 -19 13 -90 51 -158 84 -336 164 -666 259 -1043 299 -47 5 -462 12 -467 8z"/>
</g>
</svg>
